<?xml version="1.0" encoding="UTF-8" standalone="no"?>
<!DOCTYPE svg PUBLIC "-//W3C//DTD SVG 1.1//EN"
 "http://www.w3.org/Graphics/SVG/1.1/DTD/svg11.dtd">
<!-- Generated by graphviz version 12.1.2 (20240928.0832)
 -->
<!-- Title: G Pages: 1 -->
<svg width="1707pt" height="996pt"
 viewBox="0.00 0.00 1706.70 995.77" xmlns="http://www.w3.org/2000/svg" xmlns:xlink="http://www.w3.org/1999/xlink">
<g id="graph0" class="graph" transform="scale(1 1) rotate(0) translate(21.6 974.17)">
<title>G</title>
<polygon fill="#111111" stroke="none" points="-21.6,21.6 -21.6,-974.17 1685.1,-974.17 1685.1,21.6 -21.6,21.6"/>
<!-- core/EventBus.ts -->
<g id="node1" class="node">
<title>core/EventBus.ts</title>
<path fill="none" stroke="#cfffac" d="M1489.58,-722.88C1489.58,-722.88 1387.42,-722.88 1387.42,-722.88 1383.46,-722.88 1379.5,-718.92 1379.5,-714.96 1379.5,-714.96 1379.5,-707.04 1379.5,-707.04 1379.5,-703.08 1383.46,-699.12 1387.42,-699.12 1387.42,-699.12 1489.58,-699.12 1489.58,-699.12 1493.54,-699.12 1497.5,-703.08 1497.5,-707.04 1497.5,-707.04 1497.5,-714.96 1497.5,-714.96 1497.5,-718.92 1493.54,-722.88 1489.58,-722.88"/>
<text text-anchor="middle" x="1438.5" y="-705.58" font-family="Arial" font-size="14.00" fill="#cfffac">core/EventBus.ts</text>
</g>
<!-- core/GameState.ts -->
<g id="node2" class="node">
<title>core/GameState.ts</title>
<path fill="none" stroke="#cfffac" d="M1655.58,-762.88C1655.58,-762.88 1541.42,-762.88 1541.42,-762.88 1537.46,-762.88 1533.5,-758.92 1533.5,-754.96 1533.5,-754.96 1533.5,-747.04 1533.5,-747.04 1533.5,-743.08 1537.46,-739.12 1541.42,-739.12 1541.42,-739.12 1655.58,-739.12 1655.58,-739.12 1659.54,-739.12 1663.5,-743.08 1663.5,-747.04 1663.5,-747.04 1663.5,-754.96 1663.5,-754.96 1663.5,-758.92 1659.54,-762.88 1655.58,-762.88"/>
<text text-anchor="middle" x="1598.5" y="-745.58" font-family="Arial" font-size="14.00" fill="#cfffac">core/GameState.ts</text>
</g>
<!-- core/OfflineCalc.ts -->
<g id="node3" class="node">
<title>core/OfflineCalc.ts</title>
<path fill="none" stroke="#c6c5fe" d="M875.71,-910.88C875.71,-910.88 764.54,-910.88 764.54,-910.88 760.58,-910.88 756.62,-906.92 756.62,-902.96 756.62,-902.96 756.62,-895.04 756.62,-895.04 756.62,-891.08 760.58,-887.12 764.54,-887.12 764.54,-887.12 875.71,-887.12 875.71,-887.12 879.67,-887.12 883.62,-891.08 883.62,-895.04 883.62,-895.04 883.62,-902.96 883.62,-902.96 883.62,-906.92 879.67,-910.88 875.71,-910.88"/>
<text text-anchor="middle" x="820.12" y="-893.58" font-family="Arial" font-size="14.00" fill="#c6c5fe">core/OfflineCalc.ts</text>
</g>
<!-- core/OfflineCalc.ts&#45;&gt;core/GameState.ts -->
<g id="edge1" class="edge">
<title>core/OfflineCalc.ts&#45;&gt;core/GameState.ts</title>
<path fill="none" stroke="#757575" d="M883.94,-903.84C982.96,-909.9 1180.81,-915.55 1343.5,-880 1433.79,-860.27 1527.6,-800.61 1571.69,-769.83"/>
<polygon fill="#757575" stroke="#757575" points="1573.44,-772.87 1579.58,-764.24 1569.39,-767.16 1573.44,-772.87"/>
</g>
<!-- core/Ticker.ts -->
<g id="node4" class="node">
<title>core/Ticker.ts</title>
<path fill="none" stroke="#c6c5fe" d="M1478.71,-623.88C1478.71,-623.88 1398.29,-623.88 1398.29,-623.88 1394.33,-623.88 1390.38,-619.92 1390.38,-615.96 1390.38,-615.96 1390.38,-608.04 1390.38,-608.04 1390.38,-604.08 1394.33,-600.12 1398.29,-600.12 1398.29,-600.12 1478.71,-600.12 1478.71,-600.12 1482.67,-600.12 1486.62,-604.08 1486.62,-608.04 1486.62,-608.04 1486.62,-615.96 1486.62,-615.96 1486.62,-619.92 1482.67,-623.88 1478.71,-623.88"/>
<text text-anchor="middle" x="1438.5" y="-606.58" font-family="Arial" font-size="14.00" fill="#c6c5fe">core/Ticker.ts</text>
</g>
<!-- core/Ticker.ts&#45;&gt;core/GameState.ts -->
<g id="edge2" class="edge">
<title>core/Ticker.ts&#45;&gt;core/GameState.ts</title>
<path fill="none" stroke="#757575" d="M1456.08,-624.2C1467.86,-633.04 1483.94,-645.41 1497.5,-657 1526.06,-681.41 1557.37,-711.41 1577.21,-730.85"/>
<polygon fill="#757575" stroke="#757575" points="1574.56,-733.15 1584.14,-737.68 1579.47,-728.17 1574.56,-733.15"/>
</g>
<!-- golems/GolemFactory.ts -->
<g id="node5" class="node">
<title>golems/GolemFactory.ts</title>
<path fill="none" stroke="#ff6c60" d="M894.08,-204.88C894.08,-204.88 746.17,-204.88 746.17,-204.88 742.21,-204.88 738.25,-200.92 738.25,-196.96 738.25,-196.96 738.25,-189.04 738.25,-189.04 738.25,-185.08 742.21,-181.12 746.17,-181.12 746.17,-181.12 894.08,-181.12 894.08,-181.12 898.04,-181.12 902,-185.08 902,-189.04 902,-189.04 902,-196.96 902,-196.96 902,-200.92 898.04,-204.88 894.08,-204.88"/>
<text text-anchor="middle" x="820.12" y="-187.57" font-family="Arial" font-size="14.00" fill="#ff6c60">golems/GolemFactory.ts</text>
</g>
<!-- golems/OrderSystem.ts -->
<g id="node6" class="node">
<title>golems/OrderSystem.ts</title>
<path fill="none" stroke="#ff6c60" d="M1111.83,-429.88C1111.83,-429.88 968.42,-429.88 968.42,-429.88 964.46,-429.88 960.5,-425.92 960.5,-421.96 960.5,-421.96 960.5,-414.04 960.5,-414.04 960.5,-410.08 964.46,-406.12 968.42,-406.12 968.42,-406.12 1111.83,-406.12 1111.83,-406.12 1115.79,-406.12 1119.75,-410.08 1119.75,-414.04 1119.75,-414.04 1119.75,-421.96 1119.75,-421.96 1119.75,-425.92 1115.79,-429.88 1111.83,-429.88"/>
<text text-anchor="middle" x="1040.12" y="-412.57" font-family="Arial" font-size="14.00" fill="#ff6c60">golems/OrderSystem.ts</text>
</g>
<!-- golems/GolemFactory.ts&#45;&gt;golems/OrderSystem.ts -->
<g id="edge3" class="edge">
<title>golems/GolemFactory.ts&#45;&gt;golems/OrderSystem.ts</title>
<path fill="none" stroke="#757575" d="M832.85,-205.1C868.41,-241.8 975.33,-352.16 1019.6,-397.85"/>
<polygon fill="#757575" stroke="#757575" points="1016.82,-400.01 1026.29,-404.76 1021.85,-395.14 1016.82,-400.01"/>
</g>
<!-- resources/ResourceManager.ts -->
<g id="node7" class="node">
<title>resources/ResourceManager.ts</title>
<path fill="none" stroke="#c6c5fe" d="M1134.33,-204.88C1134.33,-204.88 945.92,-204.88 945.92,-204.88 941.96,-204.88 938,-200.92 938,-196.96 938,-196.96 938,-189.04 938,-189.04 938,-185.08 941.96,-181.12 945.92,-181.12 945.92,-181.12 1134.33,-181.12 1134.33,-181.12 1138.29,-181.12 1142.25,-185.08 1142.25,-189.04 1142.25,-189.04 1142.25,-196.96 1142.25,-196.96 1142.25,-200.92 1138.29,-204.88 1134.33,-204.88"/>
<text text-anchor="middle" x="1040.12" y="-187.57" font-family="Arial" font-size="14.00" fill="#c6c5fe">resources/ResourceManager.ts</text>
</g>
<!-- golems/GolemFactory.ts&#45;&gt;resources/ResourceManager.ts -->
<g id="edge4" class="edge">
<title>golems/GolemFactory.ts&#45;&gt;resources/ResourceManager.ts</title>
<path fill="none" stroke="#757575" d="M902.3,-193C910.12,-193 918.14,-193 926.19,-193"/>
<polygon fill="#757575" stroke="#757575" points="926.06,-196.5 936.06,-193 926.06,-189.5 926.06,-196.5"/>
</g>
<!-- golems/GolemManager.ts -->
<g id="node8" class="node">
<title>golems/GolemManager.ts</title>
<path fill="none" stroke="#ff6c60" d="M683.83,-358.88C683.83,-358.88 526.92,-358.88 526.92,-358.88 522.96,-358.88 519,-354.92 519,-350.96 519,-350.96 519,-343.04 519,-343.04 519,-339.08 522.96,-335.12 526.92,-335.12 526.92,-335.12 683.83,-335.12 683.83,-335.12 687.79,-335.12 691.75,-339.08 691.75,-343.04 691.75,-343.04 691.75,-350.96 691.75,-350.96 691.75,-354.92 687.79,-358.88 683.83,-358.88"/>
<text text-anchor="middle" x="605.38" y="-341.57" font-family="Arial" font-size="14.00" fill="#ff6c60">golems/GolemManager.ts</text>
</g>
<!-- golems/OrderSystem.ts&#45;&gt;golems/GolemManager.ts -->
<g id="edge10" class="edge">
<title>golems/OrderSystem.ts&#45;&gt;golems/GolemManager.ts</title>
<path fill="none" stroke="#757575" d="M960.19,-410.4C875.07,-398.47 741.53,-376.38 665.18,-361.45"/>
<polygon fill="#757575" stroke="#757575" points="666.31,-358.11 655.82,-359.6 664.95,-364.97 666.31,-358.11"/>
</g>
<!-- resources/ResourceManager.ts&#45;&gt;core/GameState.ts -->
<g id="edge29" class="edge">
<title>resources/ResourceManager.ts&#45;&gt;core/GameState.ts</title>
<path fill="none" stroke="#757575" d="M1140.18,-180.63C1203.75,-177.92 1285.03,-184.75 1343.5,-226 1523.31,-352.87 1580.89,-642.73 1594.17,-727.38"/>
<polygon fill="#757575" stroke="#757575" points="1590.71,-727.88 1595.66,-737.25 1597.63,-726.84 1590.71,-727.88"/>
</g>
<!-- resources/ResourceManager.ts&#45;&gt;core/Ticker.ts -->
<g id="edge30" class="edge">
<title>resources/ResourceManager.ts&#45;&gt;core/Ticker.ts</title>
<path fill="none" stroke="#757575" d="M1099.54,-205.3C1167.36,-222.52 1278.22,-260.22 1343.5,-333 1411.6,-408.93 1430.65,-536.01 1435.74,-588.36"/>
<polygon fill="#757575" stroke="#757575" points="1432.24,-588.55 1436.6,-598.21 1439.21,-587.94 1432.24,-588.55"/>
</g>
<!-- resources/WorldMana.ts -->
<g id="node10" class="node">
<title>resources/WorldMana.ts</title>
<path fill="none" stroke="#c6c5fe" d="M1334.46,-682.88C1334.46,-682.88 1187.29,-682.88 1187.29,-682.88 1183.33,-682.88 1179.38,-678.92 1179.38,-674.96 1179.38,-674.96 1179.38,-667.04 1179.38,-667.04 1179.38,-663.08 1183.33,-659.12 1187.29,-659.12 1187.29,-659.12 1334.46,-659.12 1334.46,-659.12 1338.42,-659.12 1342.38,-663.08 1342.38,-667.04 1342.38,-667.04 1342.38,-674.96 1342.38,-674.96 1342.38,-678.92 1338.42,-682.88 1334.46,-682.88"/>
<text text-anchor="middle" x="1260.88" y="-665.58" font-family="Arial" font-size="14.00" fill="#c6c5fe">resources/WorldMana.ts</text>
</g>
<!-- resources/ResourceManager.ts&#45;&gt;resources/WorldMana.ts -->
<g id="edge31" class="edge">
<title>resources/ResourceManager.ts&#45;&gt;resources/WorldMana.ts</title>
<path fill="none" stroke="#757575" d="M1047.52,-205.3C1063.86,-236.88 1108.26,-323.44 1142.25,-397 1184.89,-489.28 1231.32,-601.2 1250.64,-648.34"/>
<polygon fill="#757575" stroke="#757575" points="1247.35,-649.55 1254.38,-657.48 1253.83,-646.9 1247.35,-649.55"/>
</g>
<!-- golems/GolemManager.ts&#45;&gt;core/EventBus.ts -->
<g id="edge5" class="edge">
<title>golems/GolemManager.ts&#45;&gt;core/EventBus.ts</title>
<path fill="none" stroke="#757575" d="M620.56,-359.16C681.91,-410.92 932.4,-613.79 1178.25,-692 1240.25,-711.72 1314.64,-715.26 1367.8,-714.58"/>
<polygon fill="#757575" stroke="#757575" points="1367.7,-718.08 1377.64,-714.4 1367.57,-711.09 1367.7,-718.08"/>
</g>
<!-- golems/GolemManager.ts&#45;&gt;core/Ticker.ts -->
<g id="edge6" class="edge">
<title>golems/GolemManager.ts&#45;&gt;core/Ticker.ts</title>
<path fill="none" stroke="#757575" d="M691.95,-340.48C800.7,-335.4 992.28,-337.3 1142.25,-397 1259.61,-443.72 1373.11,-547.93 1417.69,-591.86"/>
<polygon fill="#757575" stroke="#757575" points="1415.04,-594.16 1424.59,-598.73 1419.98,-589.2 1415.04,-594.16"/>
</g>
<!-- golems/GolemManager.ts&#45;&gt;golems/GolemFactory.ts -->
<g id="edge7" class="edge">
<title>golems/GolemManager.ts&#45;&gt;golems/GolemFactory.ts</title>
<path fill="none" stroke="#757575" d="M680.91,-334.77C688.72,-331.25 696.06,-326.75 702.25,-321 737.49,-288.3 703.78,-252.51 738.25,-219 741.49,-215.85 745.11,-213.08 748.98,-210.65"/>
<polygon fill="#757575" stroke="#757575" points="750.52,-213.8 757.68,-205.99 747.21,-207.63 750.52,-213.8"/>
</g>
<!-- golems/GolemManager.ts&#45;&gt;golems/OrderSystem.ts -->
<g id="edge8" class="edge">
<title>golems/GolemManager.ts&#45;&gt;golems/OrderSystem.ts</title>
<path fill="none" stroke="#757575" d="M692.13,-355.56C777.33,-367.68 905.69,-388.97 980.08,-403.5"/>
<polygon fill="#757575" stroke="#757575" points="979.12,-406.88 989.61,-405.39 980.48,-400.01 979.12,-406.88"/>
</g>
<!-- golems/GolemManager.ts&#45;&gt;resources/ResourceManager.ts -->
<g id="edge9" class="edge">
<title>golems/GolemManager.ts&#45;&gt;resources/ResourceManager.ts</title>
<path fill="none" stroke="#757575" d="M620.3,-334.73C643.23,-315.19 691.1,-277.17 738.25,-257 776.37,-240.69 878.94,-220.62 953.75,-207.35"/>
<polygon fill="#757575" stroke="#757575" points="954.31,-210.81 963.55,-205.63 953.1,-203.91 954.31,-210.81"/>
</g>
<!-- golems/ScribeGolem.ts -->
<g id="node9" class="node">
<title>golems/ScribeGolem.ts</title>
<path fill="none" stroke="#c6c5fe" d="M448.08,-564.88C448.08,-564.88 306.17,-564.88 306.17,-564.88 302.21,-564.88 298.25,-560.92 298.25,-556.96 298.25,-556.96 298.25,-549.04 298.25,-549.04 298.25,-545.08 302.21,-541.12 306.17,-541.12 306.17,-541.12 448.08,-541.12 448.08,-541.12 452.04,-541.12 456,-545.08 456,-549.04 456,-549.04 456,-556.96 456,-556.96 456,-560.92 452.04,-564.88 448.08,-564.88"/>
<text text-anchor="middle" x="377.12" y="-547.58" font-family="Arial" font-size="14.00" fill="#c6c5fe">golems/ScribeGolem.ts</text>
</g>
<!-- golems/ScribeGolem.ts&#45;&gt;core/Ticker.ts -->
<g id="edge11" class="edge">
<title>golems/ScribeGolem.ts&#45;&gt;core/Ticker.ts</title>
<path fill="none" stroke="#757575" d="M456.4,-557C522.05,-560.38 618.27,-565.4 702.25,-570 954.18,-583.8 1254.61,-601.28 1379.06,-608.57"/>
<polygon fill="#757575" stroke="#757575" points="1378.5,-612.04 1388.68,-609.13 1378.91,-605.05 1378.5,-612.04"/>
</g>
<!-- golems/ScribeGolem.ts&#45;&gt;golems/OrderSystem.ts -->
<g id="edge13" class="edge">
<title>golems/ScribeGolem.ts&#45;&gt;golems/OrderSystem.ts</title>
<path fill="none" stroke="#757575" d="M438.54,-540.66C560.7,-515.71 836.59,-459.36 967.54,-432.62"/>
<polygon fill="#757575" stroke="#757575" points="968.03,-436.09 977.13,-430.66 966.63,-429.23 968.03,-436.09"/>
</g>
<!-- golems/ScribeGolem.ts&#45;&gt;resources/ResourceManager.ts -->
<g id="edge14" class="edge">
<title>golems/ScribeGolem.ts&#45;&gt;resources/ResourceManager.ts</title>
<path fill="none" stroke="#757575" d="M400.5,-540.82C498.47,-487.46 889.97,-274.23 1006.34,-210.85"/>
<polygon fill="#757575" stroke="#757575" points="1007.98,-213.95 1015.09,-206.09 1004.63,-207.8 1007.98,-213.95"/>
</g>
<!-- golems/ScribeGolem.ts&#45;&gt;golems/GolemManager.ts -->
<g id="edge12" class="edge">
<title>golems/ScribeGolem.ts&#45;&gt;golems/GolemManager.ts</title>
<path fill="none" stroke="#757575" d="M383.4,-540.73C398.1,-508.06 442.78,-418.39 508.5,-373 513.86,-369.3 519.73,-366.12 525.84,-363.39"/>
<polygon fill="#757575" stroke="#757575" points="526.91,-366.74 534.9,-359.78 524.31,-360.24 526.91,-366.74"/>
</g>
<!-- golems/ScribeGolem.ts&#45;&gt;resources/WorldMana.ts -->
<g id="edge15" class="edge">
<title>golems/ScribeGolem.ts&#45;&gt;resources/WorldMana.ts</title>
<path fill="none" stroke="#757575" d="M456.37,-565.35C529.26,-576.71 641,-593.75 738.25,-607 888.34,-627.46 1063.15,-648.3 1167.49,-660.42"/>
<polygon fill="#757575" stroke="#757575" points="1167.08,-663.9 1177.41,-661.57 1167.88,-656.94 1167.08,-663.9"/>
</g>
<!-- resources/WorldMana.ts&#45;&gt;core/EventBus.ts -->
<g id="edge32" class="edge">
<title>resources/WorldMana.ts&#45;&gt;core/EventBus.ts</title>
<path fill="none" stroke="#757575" d="M1316,-683.33C1333.78,-687.38 1353.73,-691.92 1372.24,-696.14"/>
<polygon fill="#757575" stroke="#757575" points="1371.25,-699.5 1381.77,-698.31 1372.8,-692.67 1371.25,-699.5"/>
</g>
<!-- resources/WorldMana.ts&#45;&gt;core/GameState.ts -->
<g id="edge33" class="edge">
<title>resources/WorldMana.ts&#45;&gt;core/GameState.ts</title>
<path fill="none" stroke="#757575" d="M1342.76,-668.34C1389.09,-669.06 1447.73,-673.83 1497.5,-690 1525.79,-699.19 1554.4,-717.8 1573.73,-732.06"/>
<polygon fill="#757575" stroke="#757575" points="1571.4,-734.68 1581.48,-737.93 1575.63,-729.1 1571.4,-734.68"/>
</g>
<!-- resources/WorldMana.ts&#45;&gt;core/Ticker.ts -->
<g id="edge34" class="edge">
<title>resources/WorldMana.ts&#45;&gt;core/Ticker.ts</title>
<path fill="none" stroke="#757575" d="M1301.39,-658.67C1314.79,-654.42 1329.82,-649.58 1343.5,-645 1359.62,-639.6 1377.23,-633.48 1392.8,-627.99"/>
<polygon fill="#757575" stroke="#757575" points="1393.52,-631.45 1401.78,-624.82 1391.18,-624.85 1393.52,-631.45"/>
</g>
<!-- main.ts -->
<g id="node11" class="node">
<title>main.ts</title>
<path fill="none" stroke="#c6c5fe" d="M52.33,-737.88C52.33,-737.88 7.92,-737.88 7.92,-737.88 3.96,-737.88 0,-733.92 0,-729.96 0,-729.96 0,-722.04 0,-722.04 0,-718.08 3.96,-714.12 7.92,-714.12 7.92,-714.12 52.33,-714.12 52.33,-714.12 56.29,-714.12 60.25,-718.08 60.25,-722.04 60.25,-722.04 60.25,-729.96 60.25,-729.96 60.25,-733.92 56.29,-737.88 52.33,-737.88"/>
<text text-anchor="middle" x="30.12" y="-720.58" font-family="Arial" font-size="14.00" fill="#c6c5fe">main.ts</text>
</g>
<!-- main.ts&#45;&gt;core/EventBus.ts -->
<g id="edge16" class="edge">
<title>main.ts&#45;&gt;core/EventBus.ts</title>
<path fill="none" stroke="#757575" d="M40.21,-738.04C51.6,-752.15 72.54,-775 96.25,-786 209.96,-838.76 250.77,-821 376.12,-821 376.12,-821 376.12,-821 821.12,-821 1054.31,-821 1123.24,-848.57 1343.5,-772 1370.1,-762.75 1396.68,-744.46 1414.75,-730.3"/>
<polygon fill="#757575" stroke="#757575" points="1416.61,-733.3 1422.2,-724.3 1412.22,-727.85 1416.61,-733.3"/>
</g>
<!-- main.ts&#45;&gt;core/GameState.ts -->
<g id="edge17" class="edge">
<title>main.ts&#45;&gt;core/GameState.ts</title>
<path fill="none" stroke="#757575" d="M31.39,-738.16C32.83,-771.34 41.79,-863.88 96.25,-907 194.41,-984.71 250.93,-939 376.12,-939 376.12,-939 376.12,-939 1261.88,-939 1372.76,-939 1404.43,-917.27 1497.5,-857 1532.8,-834.14 1564.43,-796.26 1582.26,-772.52"/>
<polygon fill="#757575" stroke="#757575" points="1585.04,-774.65 1588.14,-764.51 1579.4,-770.51 1585.04,-774.65"/>
</g>
<!-- main.ts&#45;&gt;core/OfflineCalc.ts -->
<g id="edge18" class="edge">
<title>main.ts&#45;&gt;core/OfflineCalc.ts</title>
<path fill="none" stroke="#757575" d="M32.31,-738.21C35.87,-767.42 49.32,-841.25 96.25,-873 200.17,-943.31 582.31,-919.7 745,-905.95"/>
<polygon fill="#757575" stroke="#757575" points="745.16,-909.45 754.82,-905.11 744.56,-902.47 745.16,-909.45"/>
</g>
<!-- main.ts&#45;&gt;core/Ticker.ts -->
<g id="edge19" class="edge">
<title>main.ts&#45;&gt;core/Ticker.ts</title>
<path fill="none" stroke="#757575" d="M31.48,-714.06C33.73,-644.32 47.45,-289.49 96.25,-194 165.13,-59.23 224.77,0 376.12,0 376.12,0 376.12,0 1041.12,0 1184.28,0 1251.03,-1.71 1343.5,-111 1406.15,-185.05 1430.43,-499.66 1436.12,-588.53"/>
<polygon fill="#757575" stroke="#757575" points="1432.62,-588.67 1436.73,-598.44 1439.61,-588.24 1432.62,-588.67"/>
</g>
<!-- main.ts&#45;&gt;golems/OrderSystem.ts -->
<g id="edge21" class="edge">
<title>main.ts&#45;&gt;golems/OrderSystem.ts</title>
<path fill="none" stroke="#757575" d="M60.7,-723.03C174.45,-710.73 592.85,-657.52 902,-513 945.46,-492.68 990.09,-458.88 1016.18,-437.55"/>
<polygon fill="#757575" stroke="#757575" points="1018.29,-440.35 1023.76,-431.27 1013.82,-434.96 1018.29,-440.35"/>
</g>
<!-- main.ts&#45;&gt;golems/GolemManager.ts -->
<g id="edge20" class="edge">
<title>main.ts&#45;&gt;golems/GolemManager.ts</title>
<path fill="none" stroke="#757575" d="M32.43,-713.8C36.36,-682.87 50.75,-600.52 96.25,-553 208.38,-435.89 396.24,-383.42 509.42,-361.42"/>
<polygon fill="#757575" stroke="#757575" points="509.81,-364.91 518.98,-359.61 508.5,-358.03 509.81,-364.91"/>
</g>
<!-- main.ts&#45;&gt;golems/ScribeGolem.ts -->
<g id="edge22" class="edge">
<title>main.ts&#45;&gt;golems/ScribeGolem.ts</title>
<path fill="none" stroke="#757575" d="M34.22,-713.79C41.01,-689.62 59.63,-635.71 96.25,-609 151.16,-568.95 227.57,-555.74 286.68,-552.11"/>
<polygon fill="#757575" stroke="#757575" points="286.57,-555.62 296.37,-551.6 286.21,-548.63 286.57,-555.62"/>
</g>
<!-- main.ts&#45;&gt;resources/WorldMana.ts -->
<g id="edge23" class="edge">
<title>main.ts&#45;&gt;resources/WorldMana.ts</title>
<path fill="none" stroke="#757575" d="M60.63,-728.72C120.21,-733.98 259.15,-745 376.12,-745 376.12,-745 376.12,-745 821.12,-745 961.12,-745 1122.78,-707.92 1205.28,-686.25"/>
<polygon fill="#757575" stroke="#757575" points="1206.15,-689.64 1214.92,-683.69 1204.36,-682.88 1206.15,-689.64"/>
</g>
<!-- ui/GolemView.ts -->
<g id="node12" class="node">
<title>ui/GolemView.ts</title>
<path fill="none" stroke="#c6c5fe" d="M220.21,-226.88C220.21,-226.88 121.79,-226.88 121.79,-226.88 117.83,-226.88 113.88,-222.92 113.88,-218.96 113.88,-218.96 113.88,-211.04 113.88,-211.04 113.88,-207.08 117.83,-203.12 121.79,-203.12 121.79,-203.12 220.21,-203.12 220.21,-203.12 224.17,-203.12 228.12,-207.08 228.12,-211.04 228.12,-211.04 228.12,-218.96 228.12,-218.96 228.12,-222.92 224.17,-226.88 220.21,-226.88"/>
<text text-anchor="middle" x="171" y="-209.57" font-family="Arial" font-size="14.00" fill="#c6c5fe">ui/GolemView.ts</text>
</g>
<!-- main.ts&#45;&gt;ui/GolemView.ts -->
<g id="edge24" class="edge">
<title>main.ts&#45;&gt;ui/GolemView.ts</title>
<path fill="none" stroke="#757575" d="M31.85,-713.73C34.97,-666.12 49.24,-489.42 96.25,-353 111.25,-309.47 138.72,-263.08 155.57,-236.71"/>
<polygon fill="#757575" stroke="#757575" points="158.33,-238.88 160.84,-228.59 152.46,-235.07 158.33,-238.88"/>
</g>
<!-- ui/HUD.ts -->
<g id="node13" class="node">
<title>ui/HUD.ts</title>
<path fill="none" stroke="#c6c5fe" d="M1289.83,-870.88C1289.83,-870.88 1231.92,-870.88 1231.92,-870.88 1227.96,-870.88 1224,-866.92 1224,-862.96 1224,-862.96 1224,-855.04 1224,-855.04 1224,-851.08 1227.96,-847.12 1231.92,-847.12 1231.92,-847.12 1289.83,-847.12 1289.83,-847.12 1293.79,-847.12 1297.75,-851.08 1297.75,-855.04 1297.75,-855.04 1297.75,-862.96 1297.75,-862.96 1297.75,-866.92 1293.79,-870.88 1289.83,-870.88"/>
<text text-anchor="middle" x="1260.88" y="-853.58" font-family="Arial" font-size="14.00" fill="#c6c5fe">ui/HUD.ts</text>
</g>
<!-- main.ts&#45;&gt;ui/HUD.ts -->
<g id="edge25" class="edge">
<title>main.ts&#45;&gt;ui/HUD.ts</title>
<path fill="none" stroke="#757575" d="M34.35,-738.09C41.29,-761.42 59.99,-812.32 96.25,-835 202.1,-901.2 251.28,-859 376.12,-859 376.12,-859 376.12,-859 821.12,-859 963.61,-859 1132.11,-859 1212.54,-859"/>
<polygon fill="#757575" stroke="#757575" points="1212.25,-862.5 1222.25,-859 1212.25,-855.5 1212.25,-862.5"/>
</g>
<!-- ui/OrderQueueView.ts -->
<g id="node14" class="node">
<title>ui/OrderQueueView.ts</title>
<path fill="none" stroke="#c6c5fe" d="M237.83,-641.88C237.83,-641.88 104.17,-641.88 104.17,-641.88 100.21,-641.88 96.25,-637.92 96.25,-633.96 96.25,-633.96 96.25,-626.04 96.25,-626.04 96.25,-622.08 100.21,-618.12 104.17,-618.12 104.17,-618.12 237.83,-618.12 237.83,-618.12 241.79,-618.12 245.75,-622.08 245.75,-626.04 245.75,-626.04 245.75,-633.96 245.75,-633.96 245.75,-637.92 241.79,-641.88 237.83,-641.88"/>
<text text-anchor="middle" x="171" y="-624.58" font-family="Arial" font-size="14.00" fill="#c6c5fe">ui/OrderQueueView.ts</text>
</g>
<!-- main.ts&#45;&gt;ui/OrderQueueView.ts -->
<g id="edge26" class="edge">
<title>main.ts&#45;&gt;ui/OrderQueueView.ts</title>
<path fill="none" stroke="#757575" d="M49,-713.65C72.85,-697.16 115.3,-667.81 143.05,-648.63"/>
<polygon fill="#757575" stroke="#757575" points="144.72,-651.73 150.95,-643.17 140.74,-645.97 144.72,-651.73"/>
</g>
<!-- ui/ResourceCircleView.ts -->
<g id="node15" class="node">
<title>ui/ResourceCircleView.ts</title>
<path fill="none" stroke="#c6c5fe" d="M1335.58,-762.88C1335.58,-762.88 1186.17,-762.88 1186.17,-762.88 1182.21,-762.88 1178.25,-758.92 1178.25,-754.96 1178.25,-754.96 1178.25,-747.04 1178.25,-747.04 1178.25,-743.08 1182.21,-739.12 1186.17,-739.12 1186.17,-739.12 1335.58,-739.12 1335.58,-739.12 1339.54,-739.12 1343.5,-743.08 1343.5,-747.04 1343.5,-747.04 1343.5,-754.96 1343.5,-754.96 1343.5,-758.92 1339.54,-762.88 1335.58,-762.88"/>
<text text-anchor="middle" x="1260.88" y="-745.58" font-family="Arial" font-size="14.00" fill="#c6c5fe">ui/ResourceCircleView.ts</text>
</g>
<!-- main.ts&#45;&gt;ui/ResourceCircleView.ts -->
<g id="edge27" class="edge">
<title>main.ts&#45;&gt;ui/ResourceCircleView.ts</title>
<path fill="none" stroke="#757575" d="M50.55,-738.34C63.09,-745.66 80.04,-754.39 96.25,-759 216.33,-793.17 251.28,-783 376.12,-783 376.12,-783 376.12,-783 821.12,-783 940.57,-783 1077.82,-771.06 1166.55,-761.76"/>
<polygon fill="#757575" stroke="#757575" points="1166.85,-765.25 1176.42,-760.72 1166.11,-758.29 1166.85,-765.25"/>
</g>
<!-- ui/GolemView.ts&#45;&gt;core/Ticker.ts -->
<g id="edge35" class="edge">
<title>ui/GolemView.ts&#45;&gt;core/Ticker.ts</title>
<path fill="none" stroke="#757575" d="M175.95,-202.92C186.87,-171.76 220.78,-88.88 281.75,-57 403.92,6.89 766.95,-42.3 902,-70 1105.87,-111.82 1203.94,-71.62 1343.5,-226 1393.01,-280.77 1425.45,-513.88 1434.75,-588.75"/>
<polygon fill="#757575" stroke="#757575" points="1431.22,-588.72 1435.9,-598.22 1438.17,-587.87 1431.22,-588.72"/>
</g>
<!-- ui/panels/BreathPanel.ts -->
<g id="node17" class="node">
<title>ui/panels/BreathPanel.ts</title>
<path fill="none" stroke="#c6c5fe" d="M450.33,-226.88C450.33,-226.88 303.92,-226.88 303.92,-226.88 299.96,-226.88 296,-222.92 296,-218.96 296,-218.96 296,-211.04 296,-211.04 296,-207.08 299.96,-203.12 303.92,-203.12 303.92,-203.12 450.33,-203.12 450.33,-203.12 454.29,-203.12 458.25,-207.08 458.25,-211.04 458.25,-211.04 458.25,-218.96 458.25,-218.96 458.25,-222.92 454.29,-226.88 450.33,-226.88"/>
<text text-anchor="middle" x="377.12" y="-209.57" font-family="Arial" font-size="14.00" fill="#c6c5fe">ui/panels/BreathPanel.ts</text>
</g>
<!-- ui/GolemView.ts&#45;&gt;ui/panels/BreathPanel.ts -->
<g id="edge36" class="edge">
<title>ui/GolemView.ts&#45;&gt;ui/panels/BreathPanel.ts</title>
<path fill="none" stroke="#757575" d="M228.59,-215C245.87,-215 265.33,-215 284.32,-215"/>
<polygon fill="#757575" stroke="#757575" points="284.22,-218.5 294.22,-215 284.22,-211.5 284.22,-218.5"/>
</g>
<!-- ui/panels/CraftingPanel.ts -->
<g id="node18" class="node">
<title>ui/panels/CraftingPanel.ts</title>
<path fill="none" stroke="#c6c5fe" d="M454.08,-131.88C454.08,-131.88 300.17,-131.88 300.17,-131.88 296.21,-131.88 292.25,-127.92 292.25,-123.96 292.25,-123.96 292.25,-116.04 292.25,-116.04 292.25,-112.08 296.21,-108.12 300.17,-108.12 300.17,-108.12 454.08,-108.12 454.08,-108.12 458.04,-108.12 462,-112.08 462,-116.04 462,-116.04 462,-123.96 462,-123.96 462,-127.92 458.04,-131.88 454.08,-131.88"/>
<text text-anchor="middle" x="377.12" y="-114.58" font-family="Arial" font-size="14.00" fill="#c6c5fe">ui/panels/CraftingPanel.ts</text>
</g>
<!-- ui/GolemView.ts&#45;&gt;ui/panels/CraftingPanel.ts -->
<g id="edge37" class="edge">
<title>ui/GolemView.ts&#45;&gt;ui/panels/CraftingPanel.ts</title>
<path fill="none" stroke="#757575" d="M198.27,-202.77C234.15,-186.08 298.66,-156.05 339.34,-137.12"/>
<polygon fill="#757575" stroke="#757575" points="340.67,-140.36 348.26,-132.97 337.72,-134.01 340.67,-140.36"/>
</g>
<!-- ui/panels/GatherPanel.ts -->
<g id="node19" class="node">
<title>ui/panels/GatherPanel.ts</title>
<path fill="none" stroke="#c6c5fe" d="M451.46,-89.88C451.46,-89.88 302.79,-89.88 302.79,-89.88 298.83,-89.88 294.88,-85.92 294.88,-81.96 294.88,-81.96 294.88,-74.04 294.88,-74.04 294.88,-70.08 298.83,-66.12 302.79,-66.12 302.79,-66.12 451.46,-66.12 451.46,-66.12 455.42,-66.12 459.38,-70.08 459.38,-74.04 459.38,-74.04 459.38,-81.96 459.38,-81.96 459.38,-85.92 455.42,-89.88 451.46,-89.88"/>
<text text-anchor="middle" x="377.12" y="-72.58" font-family="Arial" font-size="14.00" fill="#c6c5fe">ui/panels/GatherPanel.ts</text>
</g>
<!-- ui/GolemView.ts&#45;&gt;ui/panels/GatherPanel.ts -->
<g id="edge38" class="edge">
<title>ui/GolemView.ts&#45;&gt;ui/panels/GatherPanel.ts</title>
<path fill="none" stroke="#757575" d="M179.71,-202.92C195.66,-179.02 234.73,-125.68 281.75,-99 284.56,-97.41 287.47,-95.94 290.47,-94.58"/>
<polygon fill="#757575" stroke="#757575" points="291.53,-97.92 299.5,-90.94 288.92,-91.43 291.53,-97.92"/>
</g>
<!-- ui/panels/GolemPoolPanel.ts -->
<g id="node20" class="node">
<title>ui/panels/GolemPoolPanel.ts</title>
<path fill="none" stroke="#c6c5fe" d="M464.58,-282.88C464.58,-282.88 289.67,-282.88 289.67,-282.88 285.71,-282.88 281.75,-278.92 281.75,-274.96 281.75,-274.96 281.75,-267.04 281.75,-267.04 281.75,-263.08 285.71,-259.12 289.67,-259.12 289.67,-259.12 464.58,-259.12 464.58,-259.12 468.54,-259.12 472.5,-263.08 472.5,-267.04 472.5,-267.04 472.5,-274.96 472.5,-274.96 472.5,-278.92 468.54,-282.88 464.58,-282.88"/>
<text text-anchor="middle" x="377.12" y="-265.57" font-family="Arial" font-size="14.00" fill="#c6c5fe">ui/panels/GolemPoolPanel.ts</text>
</g>
<!-- ui/GolemView.ts&#45;&gt;ui/panels/GolemPoolPanel.ts -->
<g id="edge39" class="edge">
<title>ui/GolemView.ts&#45;&gt;ui/panels/GolemPoolPanel.ts</title>
<path fill="none" stroke="#757575" d="M217.05,-227.36C247.53,-235.72 288.01,-246.83 320.5,-255.74"/>
<polygon fill="#757575" stroke="#757575" points="319.16,-259 329.73,-258.27 321.01,-252.25 319.16,-259"/>
</g>
<!-- ui/panels/RitualPanel.ts -->
<g id="node21" class="node">
<title>ui/panels/RitualPanel.ts</title>
<path fill="none" stroke="#c6c5fe" d="M447.71,-338.88C447.71,-338.88 306.54,-338.88 306.54,-338.88 302.58,-338.88 298.62,-334.92 298.62,-330.96 298.62,-330.96 298.62,-323.04 298.62,-323.04 298.62,-319.08 302.58,-315.12 306.54,-315.12 306.54,-315.12 447.71,-315.12 447.71,-315.12 451.67,-315.12 455.62,-319.08 455.62,-323.04 455.62,-323.04 455.62,-330.96 455.62,-330.96 455.62,-334.92 451.67,-338.88 447.71,-338.88"/>
<text text-anchor="middle" x="377.12" y="-321.57" font-family="Arial" font-size="14.00" fill="#c6c5fe">ui/panels/RitualPanel.ts</text>
</g>
<!-- ui/GolemView.ts&#45;&gt;ui/panels/RitualPanel.ts -->
<g id="edge40" class="edge">
<title>ui/GolemView.ts&#45;&gt;ui/panels/RitualPanel.ts</title>
<path fill="none" stroke="#757575" d="M186.83,-227.28C207.21,-243.7 245.48,-272.96 281.75,-292 295.44,-299.19 310.93,-305.58 325.35,-310.88"/>
<polygon fill="#757575" stroke="#757575" points="324.1,-314.15 334.7,-314.21 326.45,-307.56 324.1,-314.15"/>
</g>
<!-- ui/HUD.ts&#45;&gt;core/GameState.ts -->
<g id="edge41" class="edge">
<title>ui/HUD.ts&#45;&gt;core/GameState.ts</title>
<path fill="none" stroke="#757575" d="M1298.05,-847.51C1312.23,-843 1328.63,-837.77 1343.5,-833 1415.03,-810.06 1497.82,-783.29 1548.92,-766.74"/>
<polygon fill="#757575" stroke="#757575" points="1549.77,-770.15 1558.21,-763.74 1547.61,-763.49 1549.77,-770.15"/>
</g>
<!-- ui/HUD.ts&#45;&gt;core/Ticker.ts -->
<g id="edge42" class="edge">
<title>ui/HUD.ts&#45;&gt;core/Ticker.ts</title>
<path fill="none" stroke="#757575" d="M1276.13,-846.65C1293.77,-830.78 1323.87,-801.73 1343.5,-772 1365.43,-738.79 1359.5,-724.41 1379.5,-690 1391.37,-669.58 1407.59,-648.18 1419.87,-632.97"/>
<polygon fill="#757575" stroke="#757575" points="1422.33,-635.48 1425.96,-625.53 1416.92,-631.04 1422.33,-635.48"/>
</g>
<!-- ui/OrderQueueView.ts&#45;&gt;core/Ticker.ts -->
<g id="edge43" class="edge">
<title>ui/OrderQueueView.ts&#45;&gt;core/Ticker.ts</title>
<path fill="none" stroke="#757575" d="M246.03,-629.9C431.08,-629.48 928.72,-627.3 1343.5,-616 1354.89,-615.69 1367.05,-615.25 1378.72,-614.78"/>
<polygon fill="#757575" stroke="#757575" points="1378.82,-618.28 1388.66,-614.36 1378.52,-611.28 1378.82,-618.28"/>
</g>
<!-- ui/OrderQueueView.ts&#45;&gt;golems/OrderSystem.ts -->
<g id="edge44" class="edge">
<title>ui/OrderQueueView.ts&#45;&gt;golems/OrderSystem.ts</title>
<path fill="none" stroke="#757575" d="M246.11,-619.61C379.51,-599.75 667.96,-551.55 902,-476 937.4,-464.57 976.33,-447.67 1003.63,-435.05"/>
<polygon fill="#757575" stroke="#757575" points="1004.91,-438.32 1012.49,-430.92 1001.94,-431.98 1004.91,-438.32"/>
</g>
<!-- ui/OrderQueueView.ts&#45;&gt;golems/ScribeGolem.ts -->
<g id="edge45" class="edge">
<title>ui/OrderQueueView.ts&#45;&gt;golems/ScribeGolem.ts</title>
<path fill="none" stroke="#757575" d="M195.49,-617.69C217.39,-606.55 251.18,-590.23 281.75,-579 292.16,-575.18 303.39,-571.61 314.36,-568.43"/>
<polygon fill="#757575" stroke="#757575" points="315.06,-571.87 323.73,-565.78 313.16,-565.13 315.06,-571.87"/>
</g>
<!-- ui/ResourceCircleView.ts&#45;&gt;core/EventBus.ts -->
<g id="edge46" class="edge">
<title>ui/ResourceCircleView.ts&#45;&gt;core/EventBus.ts</title>
<path fill="none" stroke="#757575" d="M1316,-738.67C1333.78,-734.62 1353.73,-730.08 1372.24,-725.86"/>
<polygon fill="#757575" stroke="#757575" points="1372.8,-729.33 1381.77,-723.69 1371.25,-722.5 1372.8,-729.33"/>
</g>
<!-- ui/ResourceCircleView.ts&#45;&gt;core/GameState.ts -->
<g id="edge47" class="edge">
<title>ui/ResourceCircleView.ts&#45;&gt;core/GameState.ts</title>
<path fill="none" stroke="#757575" d="M1343.98,-751C1398.22,-751 1468.79,-751 1521.69,-751"/>
<polygon fill="#757575" stroke="#757575" points="1521.53,-754.5 1531.53,-751 1521.53,-747.5 1521.53,-754.5"/>
</g>
<!-- ui/ResourceCircleView.ts&#45;&gt;core/Ticker.ts -->
<g id="edge48" class="edge">
<title>ui/ResourceCircleView.ts&#45;&gt;core/Ticker.ts</title>
<path fill="none" stroke="#757575" d="M1279.69,-738.74C1296.43,-727.07 1322.04,-708.84 1343.5,-692 1368.71,-672.21 1396.54,-648.25 1415.33,-631.74"/>
<polygon fill="#757575" stroke="#757575" points="1417.46,-634.52 1422.64,-625.28 1412.83,-629.28 1417.46,-634.52"/>
</g>
<!-- resources/CraftingManager.ts -->
<g id="node16" class="node">
<title>resources/CraftingManager.ts</title>
<path fill="none" stroke="#c6c5fe" d="M694.33,-89.88C694.33,-89.88 516.42,-89.88 516.42,-89.88 512.46,-89.88 508.5,-85.92 508.5,-81.96 508.5,-81.96 508.5,-74.04 508.5,-74.04 508.5,-70.08 512.46,-66.12 516.42,-66.12 516.42,-66.12 694.33,-66.12 694.33,-66.12 698.29,-66.12 702.25,-70.08 702.25,-74.04 702.25,-74.04 702.25,-81.96 702.25,-81.96 702.25,-85.92 698.29,-89.88 694.33,-89.88"/>
<text text-anchor="middle" x="605.38" y="-72.58" font-family="Arial" font-size="14.00" fill="#c6c5fe">resources/CraftingManager.ts</text>
</g>
<!-- resources/CraftingManager.ts&#45;&gt;resources/ResourceManager.ts -->
<g id="edge28" class="edge">
<title>resources/CraftingManager.ts&#45;&gt;resources/ResourceManager.ts</title>
<path fill="none" stroke="#757575" d="M702.42,-73.27C761.51,-73.31 837.93,-78.75 902,-101 947.34,-116.75 992.03,-151.25 1017.53,-173.24"/>
<polygon fill="#757575" stroke="#757575" points="1015.06,-175.73 1024.88,-179.72 1019.69,-170.48 1015.06,-175.73"/>
</g>
<!-- ui/panels/BreathPanel.ts&#45;&gt;golems/GolemFactory.ts -->
<g id="edge49" class="edge">
<title>ui/panels/BreathPanel.ts&#45;&gt;golems/GolemFactory.ts</title>
<path fill="none" stroke="#757575" d="M458.5,-210.99C534.03,-207.22 647.03,-201.59 726.36,-197.63"/>
<polygon fill="#757575" stroke="#757575" points="726.49,-201.13 736.3,-197.13 726.14,-194.13 726.49,-201.13"/>
</g>
<!-- ui/panels/BreathPanel.ts&#45;&gt;golems/OrderSystem.ts -->
<g id="edge51" class="edge">
<title>ui/panels/BreathPanel.ts&#45;&gt;golems/OrderSystem.ts</title>
<path fill="none" stroke="#757575" d="M425.84,-227.35C518.39,-251.61 728.46,-308.19 902,-366 934.7,-376.89 971.15,-390.8 998.25,-401.49"/>
<polygon fill="#757575" stroke="#757575" points="996.89,-404.72 1007.48,-405.16 999.47,-398.21 996.89,-404.72"/>
</g>
<!-- ui/panels/BreathPanel.ts&#45;&gt;resources/ResourceManager.ts -->
<g id="edge52" class="edge">
<title>ui/panels/BreathPanel.ts&#45;&gt;resources/ResourceManager.ts</title>
<path fill="none" stroke="#757575" d="M445.5,-202.65C545.22,-185.93 737.98,-159.51 902,-172 921.17,-173.46 941.72,-176.05 960.92,-178.93"/>
<polygon fill="#757575" stroke="#757575" points="960.14,-182.35 970.56,-180.41 961.21,-175.43 960.14,-182.35"/>
</g>
<!-- ui/panels/BreathPanel.ts&#45;&gt;golems/GolemManager.ts -->
<g id="edge50" class="edge">
<title>ui/panels/BreathPanel.ts&#45;&gt;golems/GolemManager.ts</title>
<path fill="none" stroke="#757575" d="M422.03,-227.34C438.51,-232.97 456.99,-240.52 472.5,-250 491.02,-261.32 491.42,-269.6 508.5,-283 529.82,-299.73 555.41,-316.66 574.78,-328.91"/>
<polygon fill="#757575" stroke="#757575" points="572.68,-331.72 583.01,-334.05 576.39,-325.78 572.68,-331.72"/>
</g>
<!-- ui/panels/CraftingPanel.ts&#45;&gt;resources/ResourceManager.ts -->
<g id="edge54" class="edge">
<title>ui/panels/CraftingPanel.ts&#45;&gt;resources/ResourceManager.ts</title>
<path fill="none" stroke="#757575" d="M462.4,-124.23C566.2,-130.13 747.73,-142.7 902,-165 925.97,-168.47 952.07,-173.48 975,-178.31"/>
<polygon fill="#757575" stroke="#757575" points="973.99,-181.67 984.5,-180.34 975.45,-174.82 973.99,-181.67"/>
</g>
<!-- ui/panels/CraftingPanel.ts&#45;&gt;resources/CraftingManager.ts -->
<g id="edge53" class="edge">
<title>ui/panels/CraftingPanel.ts&#45;&gt;resources/CraftingManager.ts</title>
<path fill="none" stroke="#757575" d="M444.78,-107.63C470.45,-102.86 499.97,-97.38 526.59,-92.44"/>
<polygon fill="#757575" stroke="#757575" points="527.12,-95.9 536.31,-90.63 525.84,-89.02 527.12,-95.9"/>
</g>
<!-- ui/panels/GatherPanel.ts&#45;&gt;resources/CraftingManager.ts -->
<g id="edge55" class="edge">
<title>ui/panels/GatherPanel.ts&#45;&gt;resources/CraftingManager.ts</title>
<path fill="none" stroke="#757575" d="M459.81,-78C471.82,-78 484.35,-78 496.8,-78"/>
<polygon fill="#757575" stroke="#757575" points="496.67,-81.5 506.67,-78 496.67,-74.5 496.67,-81.5"/>
</g>
<!-- ui/panels/GolemPoolPanel.ts&#45;&gt;golems/GolemManager.ts -->
<g id="edge56" class="edge">
<title>ui/panels/GolemPoolPanel.ts&#45;&gt;golems/GolemManager.ts</title>
<path fill="none" stroke="#757575" d="M414.73,-283.3C453.42,-296.29 514.59,-316.84 556.95,-331.07"/>
<polygon fill="#757575" stroke="#757575" points="555.8,-334.37 566.39,-334.24 558.03,-327.74 555.8,-334.37"/>
</g>
<!-- ui/panels/RitualPanel.ts&#45;&gt;golems/GolemFactory.ts -->
<g id="edge57" class="edge">
<title>ui/panels/RitualPanel.ts&#45;&gt;golems/GolemFactory.ts</title>
<path fill="none" stroke="#757575" d="M418.82,-314.63C499.39,-290.15 679.05,-235.56 767.67,-208.64"/>
<polygon fill="#757575" stroke="#757575" points="768.53,-212.03 777.08,-205.78 766.49,-205.33 768.53,-212.03"/>
</g>
<!-- ui/panels/RitualPanel.ts&#45;&gt;golems/OrderSystem.ts -->
<g id="edge59" class="edge">
<title>ui/panels/RitualPanel.ts&#45;&gt;golems/OrderSystem.ts</title>
<path fill="none" stroke="#757575" d="M412.62,-339.31C438.68,-348.25 475.5,-360.12 508.5,-368 609.17,-392.03 635.29,-395.47 738.25,-406 808.73,-413.21 888.9,-416.15 948.75,-417.32"/>
<polygon fill="#757575" stroke="#757575" points="948.49,-420.81 958.55,-417.49 948.62,-413.81 948.49,-420.81"/>
</g>
<!-- ui/panels/RitualPanel.ts&#45;&gt;golems/GolemManager.ts -->
<g id="edge58" class="edge">
<title>ui/panels/RitualPanel.ts&#45;&gt;golems/GolemManager.ts</title>
<path fill="none" stroke="#757575" d="M455.99,-333.88C472.55,-335.35 490.24,-336.91 507.42,-338.43"/>
<polygon fill="#757575" stroke="#757575" points="506.85,-341.89 517.12,-339.29 507.46,-334.92 506.85,-341.89"/>
</g>
</g>
</svg>
